<svg width="15" height="16" viewBox="0 0 15 16" fill="none" xmlns="http://www.w3.org/2000/svg">
<path d="M10 3.69231C9.6684 3.69223 9.35041 3.56245 9.11599 3.33152C8.88157 3.10059 8.74992 2.78743 8.75 2.46092C8.75008 2.13442 8.88189 1.82132 9.11643 1.59051C9.35097 1.3597 9.66902 1.23007 10.0006 1.23015C10.1648 1.23019 10.3274 1.26208 10.4791 1.32398C10.6308 1.38589 10.7686 1.4766 10.8846 1.59095C11.0007 1.70529 11.0928 1.84103 11.1556 1.9904C11.2184 2.13978 11.2507 2.29987 11.2506 2.46154C11.2506 2.62321 11.2182 2.78328 11.1553 2.93263C11.0925 3.08197 11.0003 3.21766 10.8842 3.33195C10.7681 3.44624 10.6302 3.53689 10.4785 3.59872C10.3268 3.66055 10.1642 3.69235 10 3.69231ZM12.4113 1.84615C12.1319 0.787692 11.1613 0 10 0C8.83875 0 7.86812 0.787692 7.58875 1.84615H0V3.07692H7.58875C7.86812 4.13539 8.83875 4.92308 10 4.92308C11.1613 4.92308 12.1319 4.13539 12.4113 3.07692H15V1.84615H12.4113ZM10 14.7692C9.83581 14.7692 9.67323 14.7373 9.52155 14.6754C9.36987 14.6135 9.23206 14.5228 9.11599 14.4084C8.99991 14.2941 8.90785 14.1584 8.84506 14.009C8.78226 13.8596 8.74996 13.6995 8.75 13.5378C8.75004 13.3762 8.78242 13.2161 8.84529 13.0668C8.90816 12.9174 9.0003 12.7817 9.11643 12.6674C9.23256 12.5531 9.37042 12.4625 9.52213 12.4007C9.67384 12.3388 9.83643 12.307 10.0006 12.3071C10.3322 12.3072 10.6502 12.4369 10.8846 12.6679C11.1191 12.8988 11.2507 13.212 11.2506 13.5385C11.2505 13.865 11.1187 14.1781 10.8842 14.4089C10.6497 14.6397 10.3316 14.7693 10 14.7692ZM10 11.0769C8.83875 11.0769 7.86812 11.8646 7.58875 12.9231H0V14.1538H7.58875C7.86812 15.2123 8.83875 16 10 16C11.1613 16 12.1319 15.2123 12.4113 14.1538H15V12.9231H12.4113C12.1319 11.8646 11.1613 11.0769 10 11.0769ZM5 9.23077C4.83581 9.23073 4.67323 9.19885 4.52155 9.13694C4.36987 9.07504 4.23206 8.98432 4.11599 8.86998C3.99991 8.75563 3.90785 8.6199 3.84505 8.47052C3.78226 8.32115 3.74996 8.16105 3.75 7.99938C3.75004 7.83772 3.78242 7.67764 3.84529 7.5283C3.90817 7.37895 4.0003 7.24326 4.11643 7.12897C4.23256 7.01469 4.37042 6.92404 4.52213 6.86221C4.67384 6.80038 4.83643 6.76857 5.00063 6.76862C5.33223 6.7687 5.65022 6.89848 5.88464 7.12941C6.11906 7.36034 6.25071 7.6735 6.25063 8C6.25054 8.3265 6.11873 8.6396 5.8842 8.87041C5.64966 9.10123 5.3316 9.23085 5 9.23077ZM5 5.53846C3.83875 5.53846 2.86813 6.32615 2.58875 7.38462H0V8.61539H2.58875C2.86813 9.67385 3.83875 10.4615 5 10.4615C6.16125 10.4615 7.13187 9.67385 7.41125 8.61539H15V7.38462H7.41125C7.13187 6.32615 6.16125 5.53846 5 5.53846Z" fill="#969696"/>
</svg>
