<svg preserveAspectRatio="none" width="100%" height="100%" overflow="visible" style="display: block;" viewBox="0 0 110 110" fill="none" xmlns="http://www.w3.org/2000/svg">
<g id="HOUSE SEARCH ICON">
<circle id="Ellipse 1" cx="55" cy="55" r="55" fill="var(--fill-0, white)"/>
<g id="House Search Icon">
<path id="Vector" d="M82.2491 48.3047L62.123 29.8028C58.0614 26.0657 51.9083 26.0657 47.8467 29.8028L27.7206 48.3047C26.1142 49.775 25.5686 52.0724 26.3566 54.1248C27.1447 56.1771 29.0543 57.4943 31.2366 57.4943H33.0856C34.298 57.4943 35.2679 58.4745 35.2679 59.6998V71.2788C35.2679 77.1908 40.0266 82 45.8766 82H58.0007C58.8494 82 59.5163 81.3261 59.5163 80.4684C59.5163 79.6107 58.8494 78.9368 58.0007 78.9368H45.8766C41.6937 78.9368 38.2989 75.506 38.2989 71.2788V59.6998C38.2989 56.7898 35.965 54.4311 33.0856 54.4311H31.2366C29.8423 54.4311 29.3271 53.359 29.2058 53.022C29.0846 52.685 28.7512 51.521 29.7817 50.5714L49.9078 32.0696C52.8176 29.4046 57.2127 29.4046 60.0922 32.0696L80.2183 50.5714C81.2488 51.521 80.9154 52.685 80.7942 53.022C80.6729 53.359 80.1577 54.4311 78.7634 54.4311H76.9144C76.0658 54.4311 75.3989 55.105 75.3989 55.9627C75.3989 56.8204 76.0658 57.4943 76.9144 57.4943H78.7634C80.9457 57.4943 82.8553 56.1771 83.6434 54.1248C84.4314 52.0724 83.8859 49.8056 82.2794 48.3047H82.2491Z" fill="var(--fill-0, #2A363A)"/>
<path id="Vector_2" d="M74.7566 73.9547C77.2516 70.416 76.951 65.486 73.7947 62.3103C70.2777 58.7716 64.5664 58.7716 61.0494 62.3103C57.5325 65.849 57.5325 71.5956 61.0494 75.1343C62.7628 76.8583 65.0173 77.7959 67.4221 77.7959C69.3158 77.7959 71.1194 77.191 72.6224 76.1022L78.0331 81.5463C78.3337 81.8488 78.7245 82 79.0852 82C79.4459 82 79.8668 81.8488 80.1373 81.5463C80.7385 80.9414 80.7385 80.0038 80.1373 79.3989L74.7266 73.9547H74.7566ZM63.1837 73.0171C60.839 70.658 60.839 66.8168 63.1837 64.4577C64.356 63.2781 65.889 62.7035 67.4221 62.7035C68.9551 62.7035 70.4882 63.2781 71.6605 64.4577C74.0051 66.8168 74.0051 70.658 71.6605 73.0171C69.376 75.3158 65.4381 75.3158 63.1536 73.0171H63.1837Z" fill="var(--fill-0, #82C7BE)"/>
</g>
</g>
</svg>
