<svg preserveAspectRatio="none" width="100%" height="100%" overflow="visible" style="display: block;" viewBox="0 0 57 53" fill="none" xmlns="http://www.w3.org/2000/svg">
<g id="Renting/Letting Icon">
<path id="Vector" d="M49.5 8.83333H36V7.36111C36 3.29778 32.64 0 28.5 0C24.36 0 21 3.29778 21 7.36111V8.83333H7.5C3.36 8.83333 0 12.1311 0 16.1944V27.9722C0 32.0356 3.36 35.3333 7.5 35.3333H21V48.5833C21 51.0272 23.01 53 25.5 53H31.5C33.99 53 36 51.0272 36 48.5833V35.3333H49.5C53.64 35.3333 57 32.0356 57 27.9722V16.1944C57 12.1311 53.64 8.83333 49.5 8.83333ZM24 7.36111C24 4.91722 26.01 2.94444 28.5 2.94444C30.99 2.94444 33 4.91722 33 7.36111V8.83333H24V7.36111ZM33 48.5833C33 49.4078 32.34 50.0556 31.5 50.0556H25.5C24.66 50.0556 24 49.4078 24 48.5833V35.3333H33V48.5833ZM54 27.9722C54 30.4161 51.99 32.3889 49.5 32.3889H7.5C5.01 32.3889 3 30.4161 3 27.9722V16.1944C3 13.7506 5.01 11.7778 7.5 11.7778H49.5C51.99 11.7778 54 13.7506 54 16.1944V27.9722Z" fill="var(--fill-0, #2A363A)"/>
<path id="Vector_2" d="M14.25 19.1213C14.25 16.789 12.3779 14.9062 10.0588 14.9062H7.26471C6.48235 14.9062 5.86765 15.5245 5.86765 16.3113V27.5513C5.86765 28.3381 6.48235 28.9563 7.26471 28.9563C8.04706 28.9563 8.66176 28.3381 8.66176 27.5513V25.3314L11.875 28.5629C12.1544 28.8439 12.5176 28.9844 12.8529 28.9844C13.1882 28.9844 13.5794 28.8439 13.8309 28.5629C14.3897 28.0009 14.3897 27.1298 13.8309 26.5678L10.5618 23.2801C12.6294 23.0272 14.2221 21.2569 14.2221 19.1213H14.25ZM10.0588 20.5263H8.66176V17.7163H10.0588C10.8412 17.7163 11.4559 18.3345 11.4559 19.1213C11.4559 19.9081 10.8412 20.5263 10.0588 20.5263Z" fill="var(--fill-0, #82C7BE)"/>
<path id="Vector_3" d="M22.2132 17.7219H25.2868C26.1474 17.7219 26.8235 17.1024 26.8235 16.3141C26.8235 15.5257 26.1474 14.9062 25.2868 14.9062H22.2132C19.6622 14.9062 17.6029 16.7927 17.6029 19.1297V24.7609C17.6029 27.0979 19.6622 28.9844 22.2132 28.9844H25.2868C26.1474 28.9844 26.8235 28.3649 26.8235 27.5766C26.8235 26.7882 26.1474 26.1687 25.2868 26.1687H22.2132C21.3526 26.1687 20.6765 25.5493 20.6765 24.7609V23.3531H25.2868C26.1474 23.3531 26.8235 22.7337 26.8235 21.9453C26.8235 21.1569 26.1474 20.5375 25.2868 20.5375H20.6765V19.1297C20.6765 18.3413 21.3526 17.7219 22.2132 17.7219Z" fill="var(--fill-0, #82C7BE)"/>
<path id="Vector_4" d="M48.8971 14.9062H43.3088C42.5265 14.9062 41.9118 15.5257 41.9118 16.3141C41.9118 17.1024 42.5265 17.7219 43.3088 17.7219H44.7059V27.5766C44.7059 28.3649 45.3206 28.9844 46.1029 28.9844C46.8853 28.9844 47.5 28.3649 47.5 27.5766V17.7219H48.8971C49.6794 17.7219 50.2941 17.1024 50.2941 16.3141C50.2941 15.5257 49.6794 14.9062 48.8971 14.9062Z" fill="var(--fill-0, #82C7BE)"/>
<path id="Vector_5" d="M36.9913 14.9239C36.1307 14.9239 35.4546 15.5413 35.4546 16.3271V21.6033L32.2274 15.6817C31.92 15.0923 31.2131 14.7836 30.5062 14.952C29.7993 15.0923 29.3382 15.6536 29.3382 16.3271V27.5531C29.3382 28.3389 30.0144 28.9563 30.875 28.9563C31.7356 28.9563 32.4118 28.3389 32.4118 27.5531V22.2769L35.639 28.1986C35.9156 28.6757 36.4381 28.9844 37.0221 28.9844C37.145 28.9844 37.2679 28.9844 37.3909 28.9563C38.0978 28.816 38.5588 28.2547 38.5588 27.5811V16.3552C38.5588 15.5694 37.8826 14.952 37.0221 14.952L36.9913 14.9239Z" fill="var(--fill-0, #82C7BE)"/>
</g>
</svg>
