<svg preserveAspectRatio="none" width="100%" height="100%" overflow="visible" style="display: block;" viewBox="0 0 59 55" fill="none" xmlns="http://www.w3.org/2000/svg">
<g id="Sale Sign Icon">
<path id="Vector" d="M51.2368 9.16667H37.2632V7.63889C37.2632 3.42222 33.7853 0 29.5 0C25.2147 0 21.7368 3.42222 21.7368 7.63889V9.16667H7.76316C3.47789 9.16667 0 12.5889 0 16.8056V29.0278C0 33.2444 3.47789 36.6667 7.76316 36.6667H21.7368V50.4167C21.7368 52.9528 23.8174 55 26.3947 55H32.6053C35.1826 55 37.2632 52.9528 37.2632 50.4167V36.6667H51.2368C55.5221 36.6667 59 33.2444 59 29.0278V16.8056C59 12.5889 55.5221 9.16667 51.2368 9.16667ZM24.8421 7.63889C24.8421 5.10278 26.9226 3.05556 29.5 3.05556C32.0774 3.05556 34.1579 5.10278 34.1579 7.63889V9.16667H24.8421V7.63889ZM34.1579 50.4167C34.1579 51.2722 33.4747 51.9444 32.6053 51.9444H26.3947C25.5253 51.9444 24.8421 51.2722 24.8421 50.4167V36.6667H34.1579V50.4167ZM55.8947 29.0278C55.8947 31.5639 53.8142 33.6111 51.2368 33.6111H7.76316C5.18579 33.6111 3.10526 31.5639 3.10526 29.0278V16.8056C3.10526 14.2694 5.18579 12.2222 7.76316 12.2222H51.2368C53.8142 12.2222 55.8947 14.2694 55.8947 16.8056V29.0278Z" fill="var(--fill-0, #2A363A)"/>
<path id="Vector_2" d="M10.8685 18.3334H13.9738C14.8432 18.3334 15.5264 17.6612 15.5264 16.8056C15.5264 15.9501 14.8432 15.2779 13.9738 15.2779H10.8685C8.29114 15.2779 6.21062 17.3251 6.21062 19.8612C6.21062 22.3973 8.29114 24.4445 10.8685 24.4445C11.738 24.4445 12.4211 25.1168 12.4211 25.9723C12.4211 26.8279 11.738 27.5001 10.8685 27.5001H7.76325C6.89377 27.5001 6.21062 28.1723 6.21062 29.0279C6.21062 29.8834 6.89377 30.5556 7.76325 30.5556H10.8685C13.4459 30.5556 15.5264 28.5084 15.5264 25.9723C15.5264 23.4362 13.4459 21.389 10.8685 21.389C9.99904 21.389 9.31588 20.7168 9.31588 19.8612C9.31588 19.0056 9.99904 18.3334 10.8685 18.3334Z" fill="var(--fill-0, #82C7BE)"/>
<path id="Vector_3" d="M23.2895 15.2779C20.7121 15.2779 18.6316 17.3251 18.6316 19.8612V29.0279C18.6316 29.8834 19.3147 30.5556 20.1842 30.5556C21.0537 30.5556 21.7368 29.8834 21.7368 29.0279V24.4445H24.8421V29.0279C24.8421 29.8834 25.5253 30.5556 26.3947 30.5556C27.2642 30.5556 27.9474 29.8834 27.9474 29.0279V19.8612C27.9474 17.3251 25.8668 15.2779 23.2895 15.2779ZM21.7368 21.389V19.8612C21.7368 19.0056 22.42 18.3334 23.2895 18.3334C24.1589 18.3334 24.8421 19.0056 24.8421 19.8612V21.389H21.7368Z" fill="var(--fill-0, #82C7BE)"/>
<path id="Vector_4" d="M38.816 27.5001H35.7107C34.8412 27.5001 34.1581 26.8279 34.1581 25.9723V16.8056C34.1581 15.9501 33.4749 15.2779 32.6054 15.2779C31.736 15.2779 31.0528 15.9501 31.0528 16.8056V25.9723C31.0528 28.5084 33.1333 30.5556 35.7107 30.5556H38.816C39.6854 30.5556 40.3686 29.8834 40.3686 29.0279C40.3686 28.1723 39.6854 27.5001 38.816 27.5001Z" fill="var(--fill-0, #82C7BE)"/>
<path id="Vector_5" d="M48.1317 18.3334H51.2369C52.1064 18.3334 52.7896 17.6612 52.7896 16.8056C52.7896 15.9501 52.1064 15.2779 51.2369 15.2779H48.1317C45.5543 15.2779 43.4738 17.3251 43.4738 19.8612V25.9723C43.4738 28.5084 45.5543 30.5556 48.1317 30.5556H51.2369C52.1064 30.5556 52.7896 29.8834 52.7896 29.0279C52.7896 28.1723 52.1064 27.5001 51.2369 27.5001H48.1317C47.2622 27.5001 46.579 26.8279 46.579 25.9723V24.4445H51.2369C52.1064 24.4445 52.7896 23.7723 52.7896 22.9168C52.7896 22.0612 52.1064 21.389 51.2369 21.389H46.579V19.8612C46.579 19.0056 47.2622 18.3334 48.1317 18.3334Z" fill="var(--fill-0, #82C7BE)"/>
</g>
</svg>
