<svg preserveAspectRatio="none" width="100%" height="100%" overflow="visible" style="display: block;" viewBox="0 0 58 54" fill="none" xmlns="http://www.w3.org/2000/svg">
<g id="Buying House Icon">
<path id="Vector" d="M56.2491 20.9173L36.123 2.75188C32.0614 -0.917293 25.9083 -0.917293 21.8467 2.75188L1.7206 20.9173C0.114151 22.3609 -0.431437 24.6165 0.356634 26.6316C1.14471 28.6466 3.05426 29.9398 5.23662 29.9398H7.08555C8.29797 29.9398 9.2679 30.9023 9.2679 32.1053V43.4737C9.2679 49.2782 14.0266 54 19.8766 54H35.0318C35.8805 54 36.5473 53.3383 36.5473 52.4962C36.5473 51.6541 35.8805 50.9925 35.0318 50.9925H19.8766C15.6937 50.9925 12.2989 47.6241 12.2989 43.4737V32.1053C12.2989 29.2481 9.96504 26.9323 7.08555 26.9323H5.23662C3.84234 26.9323 3.32706 25.8797 3.20582 25.5489C3.08457 25.218 2.75116 24.0752 3.78171 23.1429L23.9078 4.97744C26.8176 2.3609 31.1823 2.3609 34.0922 4.97744L54.2183 23.1429C55.2488 24.0752 54.9154 25.218 54.7942 25.5489C54.6729 25.8797 54.1577 26.9323 52.7634 26.9323H50.9144C50.0658 26.9323 49.3989 27.594 49.3989 28.4361C49.3989 29.2782 50.0658 29.9398 50.9144 29.9398H52.7634C54.9457 29.9398 56.8553 28.6466 57.6434 26.6316C58.4314 24.6165 57.8859 22.391 56.2794 20.9173H56.2491Z" fill="var(--fill-0, #2A363A)"/>
<path id="Vector_2" d="M52.6199 51H43.534C44.0761 50.2173 44.3527 49.1834 44.3527 47.8864L44.288 45.3398H48.3034C48.8388 45.3398 49.2738 44.9194 49.2738 44.4019V44.3911C49.2738 43.8736 48.8388 43.4531 48.3034 43.4531H44.1698L44.0448 39.4414C44.0448 38.3536 44.3482 37.4738 44.9539 36.8033C45.5606 36.1327 46.3526 35.7984 47.3319 35.7984C48.3658 35.7984 49.1789 36.0691 49.7712 36.6092C50.1739 36.9779 50.4996 37.7843 50.6234 38.166C50.8108 38.745 51.2201 39.1406 51.8838 39.1406C52.6154 39.1406 53.2088 38.5671 53.2088 37.8598C53.2088 37.7423 53.1553 37.3779 53.1553 37.3779C52.9244 36.4928 52.4649 35.7445 51.7778 35.1322C50.7438 34.2114 49.3407 33.75 47.5694 33.75C45.7056 33.75 44.2021 34.2664 43.0599 35.3003C41.9178 36.3353 41.3478 37.7175 41.3478 39.4468L41.4705 43.4531H40.2057C39.6703 43.4531 39.2353 43.8736 39.2353 44.3911V44.4019C39.2353 44.9194 39.6703 45.3398 40.2057 45.3398H41.5564L41.6546 47.8993V48.0039C41.6356 48.8384 41.5096 49.5402 41.2776 50.1095C41.0891 50.5688 40.8526 50.8609 40.5738 51H40.3507C39.735 51 39.2353 51.483 39.2353 52.0781C39.2353 52.6733 39.735 53.1563 40.3507 53.1563H52.6199C53.2356 53.1563 53.7353 52.6733 53.7353 52.0781C53.7353 51.483 53.2356 51 52.6199 51Z" fill="var(--fill-0, #82C7BE)"/>
</g>
</svg>
