<svg preserveAspectRatio="none" width="100%" height="100%" overflow="visible" style="display: block;" viewBox="0 0 58 55" fill="none" xmlns="http://www.w3.org/2000/svg">
<g id="House Search Icon">
<path id="Vector" d="M56.2491 21.3047L36.123 2.80284C32.0614 -0.93428 25.9083 -0.93428 21.8467 2.80284L1.7206 21.3047C0.114151 22.775 -0.431437 25.0724 0.356634 27.1248C1.14471 29.1771 3.05426 30.4943 5.23662 30.4943H7.08555C8.29797 30.4943 9.2679 31.4745 9.2679 32.6998V44.2788C9.2679 50.1908 14.0266 55 19.8766 55H32.0007C32.8494 55 33.5163 54.3261 33.5163 53.4684C33.5163 52.6107 32.8494 51.9368 32.0007 51.9368H19.8766C15.6937 51.9368 12.2989 48.506 12.2989 44.2788V32.6998C12.2989 29.7898 9.96504 27.4311 7.08555 27.4311H5.23662C3.84234 27.4311 3.32706 26.359 3.20582 26.022C3.08457 25.685 2.75116 24.521 3.78171 23.5714L23.9078 5.06962C26.8176 2.40462 31.2127 2.40462 34.0922 5.06962L54.2183 23.5714C55.2488 24.521 54.9154 25.685 54.7942 26.022C54.6729 26.359 54.1577 27.4311 52.7634 27.4311H50.9144C50.0658 27.4311 49.3989 28.105 49.3989 28.9627C49.3989 29.8204 50.0658 30.4943 50.9144 30.4943H52.7634C54.9457 30.4943 56.8553 29.1771 57.6434 27.1248C58.4314 25.0724 57.8859 22.8056 56.2794 21.3047H56.2491Z" fill="var(--fill-0, #2A363A)"/>
<path id="Vector_2" d="M48.7566 46.9547C51.2516 43.416 50.951 38.486 47.7947 35.3103C44.2777 31.7716 38.5664 31.7716 35.0494 35.3103C31.5325 38.849 31.5325 44.5956 35.0494 48.1343C36.7628 49.8583 39.0173 50.7959 41.4221 50.7959C43.3158 50.7959 45.1194 50.191 46.6224 49.1022L52.0331 54.5463C52.3337 54.8488 52.7245 55 53.0852 55C53.4459 55 53.8668 54.8488 54.1373 54.5463C54.7385 53.9414 54.7385 53.0038 54.1373 52.3989L48.7266 46.9547H48.7566ZM37.1837 46.0171C34.839 43.658 34.839 39.8168 37.1837 37.4577C38.356 36.2781 39.889 35.7035 41.4221 35.7035C42.9551 35.7035 44.4882 36.2781 45.6605 37.4577C48.0051 39.8168 48.0051 43.658 45.6605 46.0171C43.376 48.3158 39.4381 48.3158 37.1536 46.0171H37.1837Z" fill="var(--fill-0, #82C7BE)"/>
</g>
</svg>
