<svg preserveAspectRatio="none" width="100%" height="100%" overflow="visible" style="display: block;" viewBox="0 0 110 110" fill="none" xmlns="http://www.w3.org/2000/svg">
<g id="Renting Icon">
<circle id="Ellipse 1" cx="55" cy="55" r="55" fill="var(--fill-0, white)"/>
<g id="Renting/Letting Icon">
<path id="Vector" d="M75.5 36.8333H62V35.3611C62 31.2978 58.64 28 54.5 28C50.36 28 47 31.2978 47 35.3611V36.8333H33.5C29.36 36.8333 26 40.1311 26 44.1944V55.9722C26 60.0356 29.36 63.3333 33.5 63.3333H47V76.5833C47 79.0272 49.01 81 51.5 81H57.5C59.99 81 62 79.0272 62 76.5833V63.3333H75.5C79.64 63.3333 83 60.0356 83 55.9722V44.1944C83 40.1311 79.64 36.8333 75.5 36.8333ZM50 35.3611C50 32.9172 52.01 30.9444 54.5 30.9444C56.99 30.9444 59 32.9172 59 35.3611V36.8333H50V35.3611ZM59 76.5833C59 77.4078 58.34 78.0556 57.5 78.0556H51.5C50.66 78.0556 50 77.4078 50 76.5833V63.3333H59V76.5833ZM80 55.9722C80 58.4161 77.99 60.3889 75.5 60.3889H33.5C31.01 60.3889 29 58.4161 29 55.9722V44.1944C29 41.7506 31.01 39.7778 33.5 39.7778H75.5C77.99 39.7778 80 41.7506 80 44.1944V55.9722Z" fill="var(--fill-0, #2A363A)"/>
<path id="Vector_2" d="M40.25 47.1213C40.25 44.789 38.3779 42.9062 36.0588 42.9062H33.2647C32.4824 42.9062 31.8676 43.5245 31.8676 44.3113V55.5513C31.8676 56.3381 32.4824 56.9563 33.2647 56.9563C34.0471 56.9563 34.6618 56.3381 34.6618 55.5513V53.3314L37.875 56.5629C38.1544 56.8439 38.5176 56.9844 38.8529 56.9844C39.1882 56.9844 39.5794 56.8439 39.8309 56.5629C40.3897 56.0009 40.3897 55.1298 39.8309 54.5678L36.5618 51.2801C38.6294 51.0272 40.2221 49.2569 40.2221 47.1213H40.25ZM36.0588 48.5263H34.6618V45.7163H36.0588C36.8412 45.7163 37.4559 46.3345 37.4559 47.1213C37.4559 47.9081 36.8412 48.5263 36.0588 48.5263Z" fill="var(--fill-0, #82C7BE)"/>
<path id="Vector_3" d="M48.2132 45.7219H51.2868C52.1474 45.7219 52.8235 45.1024 52.8235 44.3141C52.8235 43.5257 52.1474 42.9062 51.2868 42.9062H48.2132C45.6622 42.9062 43.6029 44.7927 43.6029 47.1297V52.7609C43.6029 55.0979 45.6622 56.9844 48.2132 56.9844H51.2868C52.1474 56.9844 52.8235 56.3649 52.8235 55.5766C52.8235 54.7882 52.1474 54.1687 51.2868 54.1687H48.2132C47.3526 54.1687 46.6765 53.5493 46.6765 52.7609V51.3531H51.2868C52.1474 51.3531 52.8235 50.7337 52.8235 49.9453C52.8235 49.1569 52.1474 48.5375 51.2868 48.5375H46.6765V47.1297C46.6765 46.3413 47.3526 45.7219 48.2132 45.7219Z" fill="var(--fill-0, #82C7BE)"/>
<path id="Vector_4" d="M74.8971 42.9062H69.3088C68.5265 42.9062 67.9118 43.5257 67.9118 44.3141C67.9118 45.1024 68.5265 45.7219 69.3088 45.7219H70.7059V55.5766C70.7059 56.3649 71.3206 56.9844 72.1029 56.9844C72.8853 56.9844 73.5 56.3649 73.5 55.5766V45.7219H74.8971C75.6794 45.7219 76.2941 45.1024 76.2941 44.3141C76.2941 43.5257 75.6794 42.9062 74.8971 42.9062Z" fill="var(--fill-0, #82C7BE)"/>
<path id="Vector_5" d="M62.9913 42.9239C62.1307 42.9239 61.4546 43.5413 61.4546 44.3271V49.6033L58.2274 43.6817C57.92 43.0923 57.2131 42.7836 56.5062 42.952C55.7993 43.0923 55.3382 43.6536 55.3382 44.3271V55.5531C55.3382 56.3389 56.0144 56.9563 56.875 56.9563C57.7356 56.9563 58.4118 56.3389 58.4118 55.5531V50.2769L61.639 56.1986C61.9156 56.6757 62.4381 56.9844 63.0221 56.9844C63.145 56.9844 63.2679 56.9844 63.3909 56.9563C64.0978 56.816 64.5588 56.2547 64.5588 55.5811V44.3552C64.5588 43.5694 63.8826 42.952 63.0221 42.952L62.9913 42.9239Z" fill="var(--fill-0, #82C7BE)"/>
</g>
</g>
</svg>
