<svg width="24" height="24" viewBox="0 0 24 24" fill="none" xmlns="http://www.w3.org/2000/svg">
  <path d="M22.54 6.42C22.4212 5.94541 22.1792 5.51057 21.8386 5.15941C21.498 4.80824 21.0707 4.55318 20.6 4.42C18.88 4 12 4 12 4C12 4 5.12 4 3.4 4.46C2.92925 4.59318 2.50198 4.84824 2.16137 5.19941C1.82077 5.55057 1.57879 5.98541 1.46 6.46C1 8.18 1 11.75 1 11.75C1 11.75 1 15.32 1.46 17.04C1.57879 17.5146 1.82077 17.9494 2.16137 18.3006C2.50198 18.6518 2.92925 18.9068 3.4 19.04C5.12 19.5 12 19.5 12 19.5C12 19.5 18.88 19.5 20.6 19.04C21.0707 18.9068 21.498 18.6518 21.8386 18.3006C22.1792 17.9494 22.4212 17.5146 22.54 17.04C23 15.32 23 11.75 23 11.75C23 11.75 23 8.18 22.54 6.42Z" stroke="white" stroke-width="2" stroke-linecap="round" stroke-linejoin="round"/>
  <polygon points="9.75,15.02 15.5,11.75 9.75,8.48" fill="white"/>
</svg>
